:FULLY-SPECIFIED
:FORCE-ALL-JOINTS-BE-3DOF
:DEGREES
146
root 8.61229 15.9561 -16.3099 6.50029 8.44463 3.46425
lfemur 25.8385 5.49227 -18.069
ltibia 3.36868 0 0
lfoot 5.88239 -1.1898 0
ltoes -15.8231 0 0
rfemur -41.1954 2.06532 15.8796
rtibia 39.3331 0 0
rfoot -6.44445 -3.62506 0
rtoes -15.8855 0 0
lowerback -6.72598 -3.27923 -4.23656
upperback -1.20447 -4.129 2.28481
thorax 2.98751 -2.11243 4.35419
lowerneck -19.3542 -5.92524 -13.9035
upperneck 17.3508 -6.98528 12.9583
head 9.65281 -2.82046 5.86929
lclavicle -2.30955e-15 1.49935e-14 0
lhumerus -35.4196 -1.58417 91.1231
lradius 18.7439 0 0
lwrist -10.9326 0 0
lhand -12.7304 -23.5408 0
lfingers 7.12502 0 0
lthumb 13.3507 5.9787 0
rclavicle -2.30955e-15 1.49935e-14 0
rhumerus -48.1743 4.26546 -81.7977
rradius 29.0049 0 0
rwrist -15.6055 0 0
rhand -30.3424 -22.3766 0
rfingers 7.12502 0 0
rthumb -3.64809 -52.3252 0
147
root 8.56832 16.0147 -16.0627 6.60913 8.69478 2.86889
lfemur 23.1254 5.95398 -17.017
ltibia 8.83437 0 0
lfoot 6.67447 -0.513525 0
ltoes -14.9227 0 0
rfemur -40.2699 1.8633 16.9376
rtibia 39.2277 0 0
rfoot -7.10127 -3.08451 0
rtoes -15.2579 0 0
lowerback -6.53334 -3.26997 -3.6612
upperback -1.27242 -4.16492 2.44108
thorax 2.78396 -2.12116 4.20248
lowerneck -19.5208 -5.96438 -13.8418
upperneck 17.1946 -7.04615 13.0634
head 9.64053 -2.82751 5.8826
lclavicle 2.99097e-15 1.14559e-14 0
lhumerus -36.0761 0.00116556 90.1436
lradius 18.0557 0 0
lwrist -11.7108 0 0
lhand -10.4011 -22.3951 0
lfingers 7.12502 0 0
lthumb 15.592 6.92239 0
rclavicle 2.99097e-15 1.14559e-14 0
rhumerus -47.8501 4.22005 -81.5546
rradius 28.8829 0 0
rwrist -14.9831 0 0
rhand -29.8914 -22.3355 0
rfingers 7.12502 0 0
rthumb -3.21251 -52.2897 0
148
root 8.52534 16.0781 -15.8181 6.73253 8.99214 2.23842
lfemur 20.0407 6.40184 -15.9377
ltibia 14.908 0 0
lfoot 7.23455 0.167332 0
ltoes -13.8046 0 0
rfemur -39.2719 1.65787 18.0109
rtibia 38.9877 0 0
rfoot -7.84357 -2.59507 0
rtoes -14.7258 0 0
lowerback -6.34609 -3.2737 -3.04411
upperback -1.34567 -4.22018 2.60518
thorax 2.5777 -2.13918 4.03309
lowerneck -19.7344 -6.00893 -13.7613
upperneck 17.0777 -7.11571 13.161
head 9.65117 -2.8366 5.88956
lclavicle 1.04719e-14 7.25564e-15 0
lhumerus -36.7699 1.44702 89.188
lradius 17.4762 0 0
lwrist -12.2921 0 0
lhand -7.55973 -20.9468 0
lfingers 7.12502 0 0
lthumb 18.3261 8.12629 0
rclavicle 1.04719e-14 7.25564e-15 0
rhumerus -47.4997 4.17628 -81.3064
rradius 28.7783 0 0
rwrist -14.3271 0 0
rhand -29.2672 -22.5097 0
rfingers 7.12502 0 0
rthumb -2.60968 -52.4711 0
149
root 8.49178 16.131 -15.6247 6.83694 9.26116 1.71256
lfemur 17.3869 6.75573 -15.0438
ltibia 20.1005 0 0
lfoot 7.56506 0.670063 0
ltoes -12.67 0 0
rfemur -38.4449 1.4838 18.8812
rtibia 38.7451 0 0
rfoot -8.48806 -2.22986 0
rtoes -14.3608 0 0
lowerback -6.20125 -3.28986 -2.5214
upperback -1.40662 -4.28373 2.73948
thorax 2.41309 -2.16295 3.88222
lowerneck -19.9405 -6.04244 -13.6752
upperneck 17.0122 -7.17044 13.2288
head 9.67457 -2.8419 5.88843
lclavicle 1.82569e-14 3.5634e-15 0
lhumerus -37.3401 2.63886 88.3714
lradius 17.0349 0 0
lwrist -12.7199 0 0
lhand -4.91246 -19.5721 0
lfingers 7.12502 0 0
lthumb 20.8736 9.27431 0
rclavicle 1.82569e-14 3.5634e-15 0
rhumerus -47.2017 4.12186 -81.0936
rradius 28.6814 0 0
rwrist -13.7241 0 0
rhand -28.6361 -22.7466 0
rfingers 7.12502 0 0
rthumb -2.00026 -52.7151 0
150
root 8.47606 16.158 -15.5307 6.88884 9.4263 1.43106
lfemur 15.9668 6.93555 -14.548
ltibia 22.9228 0 0
lfoot 7.66842 0.811958 0
ltoes -11.7206 0 0
rfemur -38.0329 1.37584 19.3303
rtibia 38.6319 0 0
rfoot -8.85145 -2.06197 0
rtoes -14.2348 0 0
lowerback -6.13582 -3.31787 -2.22919
upperback -1.43763 -4.3445 2.80633
thorax 2.3345 -2.18891 3.78605
lowerneck -20.0847 -6.04848 -13.5965
upperneck 17.0104 -7.18678 13.2442
head 9.7006 -2.83757 5.87749
lclavicle 2.44696e-14 1.54979e-15 0
lhumerus -37.6257 3.46214 87.8092
lradius 16.7615 0 0
lwrist -13.0371 0 0
lhand -3.1654 -18.6471 0
lfingers 7.12502 0 0
lthumb 22.5548 10.0503 0
rclavicle 2.44696e-14 1.54979e-15 0
rhumerus -47.0342 4.04448 -80.9569
rradius 28.5823 0 0
rwrist -13.2609 0 0
rhand -28.1646 -22.8938 0
rfingers 7.12502 0 0
rthumb -1.54491 -52.8675 0
151
root 8.48658 16.1437 -15.5848 6.8547 9.412 1.53366
lfemur 16.583 6.86119 -14.6629
ltibia 21.8859 0 0
lfoot 7.54703 0.410312 0
ltoes -11.1576 0 0
rfemur -38.2796 1.36876 19.1399
rtibia 38.7801 0 0
rfoot -8.75045 -2.16453 0
rtoes -14.4194 0 0
lowerback -6.1868 -3.35719 -2.3036
upperback -1.42108 -4.39145 2.7681
thorax 2.38629 -2.21351 3.78076
lowerneck -20.1124 -6.01062 -13.5385
upperneck 17.0845 -7.1412 13.1849
head 9.7191 -2.81776 5.85501
lclavicle 2.72335e-14 2.38542e-15 0
lhumerus -37.4658 3.80233 87.6165
lradius 16.6855 0 0
lwrist -13.2871 0 0
lhand -3.02465 -18.5477 0
lfingers 7.12502 0 0
lthumb 22.6903 10.1383 0
rclavicle 2.72335e-14 2.38542e-15 0
rhumerus -47.0759 3.93182 -80.9366
rradius 28.4715 0 0
rwrist -13.0243 0 0
rhand -28.019 -22.7991 0
rfingers 7.12502 0 0
rthumb -1.40429 -52.7742 0
152
root 8.45374 16.1958 -15.4072 6.979 9.53866 1.14145
lfemur 14.1114 7.10574 -14.1909
ltibia 26.1223 0 0
lfoot 7.65823 1.56617 0
ltoes -12.0106 0 0
rfemur -37.398 1.34393 19.8113
rtibia 38.2084 0 0
rfoot -9.21751 -1.86797 0
rtoes -14.0062 0 0
lowerback -6.0328 -3.26688 -1.97816
upperback -1.48145 -4.29463 2.89719
thorax 2.21745 -2.1603 3.74977
lowerneck -20.1109 -6.11816 -13.6545
upperneck 16.9061 -7.27655 13.3478
head 9.69115 -2.87164 5.90825
lclavicle 2.43991e-14 -8.70594e-16 0
lhumerus -38.052 3.01537 87.9955
lradius 16.938 0 0
lwrist -12.5025 0 0
lhand -2.37467 -18.2491 0
lfingers 7.12502 0 0
lthumb 23.3157 10.3798 0
rclavicle 2.43991e-14 -8.70594e-16 0
rhumerus -46.879 4.22835 -80.9404
rradius 28.7677 0 0
rwrist -13.4612 0 0
rhand -28.0847 -23.2893 0
rfingers 7.12502 0 0
rthumb -1.4677 -53.2641 0
153
root 8.41333 16.2626 -15.1908 7.14903 9.65516 0.694805
lfemur 10.9424 7.36116 -13.7701
ltibia 31.2622 0 0
lfoot 7.59459 3.27935 0
ltoes -13.679 0 0
rfemur -36.238 1.36703 20.5758
rtibia 37.3036 0 0
rfoot -9.7646 -1.53913 0
rtoes -13.5323 0 0
lowerback -5.83917 -3.11473 -1.63728
upperback -1.55916 -4.11446 3.05777
thorax 2.00339 -2.06534 3.7522
lowerneck -20.0375 -6.28281 -13.8722
upperneck 16.6473 -7.4802 13.5881
head 9.64133 -2.95878 5.99454
lclavicle 1.7921e-14 -4.88862e-15 0
lhumerus -38.8207 1.19307 88.9593
lradius 17.5911 0 0
lwrist -10.9474 0 0
lhand -2.14272 -18.1817 0
lfingers 7.12502 0 0
lthumb 23.5387 10.4249 0
rclavicle 1.7921e-14 -4.88862e-15 0
rhumerus -46.659 4.7461 -81.0271
rradius 29.3064 0 0
rwrist -14.3903 0 0
rhand -28.3609 -24.0833 0
rfingers 7.12502 0 0
rthumb -1.73445 -54.0554 0
154
root 8.37311 16.3302 -14.9778 7.32543 9.7539 0.265035
lfemur 7.73913 7.59462 -13.4199
ltibia 36.3405 0 0
lfoot 7.45909 5.12125 0
ltoes -15.7341 0 0
rfemur -35.0548 1.41962 21.3077
rtibia 36.3131 0 0
rfoot -10.2935 -1.23287 0
rtoes -13.0547 0 0
lowerback -5.64394 -2.9446 -1.32483
upperback -1.63774 -3.90727 3.21979
thorax 1.7875 -1.95741 3.77453
lowerneck -19.9345 -6.46352 -14.1262
upperneck 16.3748 -7.70173 13.8455
head 9.58655 -3.05595 6.09024
lclavicle 9.59447e-15 -8.99498e-15 0
lhumerus -39.5957 -1.03809 90.1572
lradius 18.3904 0 0
lwrist -9.12813 0 0
lhand -2.21245 -18.2713 0
lfingers 7.12502 0 0
lthumb 23.4714 10.339 0
rclavicle 9.59447e-15 -8.99498e-15 0
rhumerus -46.4548 5.33049 -81.1555
rradius 29.923 0 0
rwrist -15.5221 0 0
rhand -28.7481 -24.9652 0
rfingers 7.12502 0 0
rthumb -2.1084 -54.9335 0
